HIERARCHY
ROOT Hips
{
  OFFSET -231.746 89.5955 -247.171
  CHANNELS 6 Xposition Yposition Zposition Zrotation Xrotation Yrotation
  JOINT ToSpine
  {
    OFFSET -2.69724 7.43032 -0.144315
    CHANNELS 3 Zrotation Xrotation Yrotation
    JOINT Spine
    {
      OFFSET -0.0310711 10.7595 1.96963
      CHANNELS 3 Zrotation Xrotation Yrotation
      JOINT Spine1
      {
        OFFSET 13.1342 3.43533 0.764692
        CHANNELS 3 Zrotation Xrotation Yrotation
        JOINT Neck
        {
          OFFSET 29.8703 7.82586 -0.130764
          CHANNELS 3 Zrotation Xrotation Yrotation
          JOINT Head
          {
            OFFSET 9.52751 0.295786 -0.907742
            CHANNELS 3 Zrotation Xrotation Yrotation
            End Site
            {
              OFFSET 16.4037 0.713936 2.7358
            }
          }
        }
        JOINT LeftShoulder
        {
          OFFSET 27.5574 4.95586 2.47156
          CHANNELS 3 Zrotation Xrotation Yrotation
          JOINT LeftArm
          {
            OFFSET 1.20734 -0.998971 20.1238
            CHANNELS 3 Zrotation Xrotation Yrotation
            JOINT LeftForeArm
            {
              OFFSET 26.8049 -0.0536703 -0.155908
              CHANNELS 3 Zrotation Xrotation Yrotation
              JOINT LeftHand
              {
                OFFSET 26.6817 0 0.320147
                CHANNELS 3 Zrotation Xrotation Yrotation
                End Site
                {
                  OFFSET 18.6119 0 0.382219
                }
              }
            }
          }
        }
        JOINT RightShoulder
        {
          OFFSET 27.5927 4.71444 -2.65209
          CHANNELS 3 Zrotation Xrotation Yrotation
          JOINT RightArm
          {
            OFFSET 2.83739 -1.17114 -18.7564
            CHANNELS 3 Zrotation Xrotation Yrotation
            JOINT RightForeArm
            {
              OFFSET 28.839 -0.0548439 1.22491
              CHANNELS 3 Zrotation Xrotation Yrotation
              JOINT RightHand
              {
                OFFSET 26.5114 0 -0.101894
                CHANNELS 3 Zrotation Xrotation Yrotation
                End Site
                {
                  OFFSET 18.2168 0 0
                }
              }
            }
          }
        }
      }
    }
  }
  JOINT LeftUpLeg
  {
    OFFSET -4.76168 -1.9167 -10.2353
    CHANNELS 3 Zrotation Xrotation Yrotation
    JOINT LeftLeg
    {
      OFFSET 2.55951 -42.0585 -8.02213
      CHANNELS 3 Zrotation Xrotation Yrotation
      JOINT LeftFoot
      {
        OFFSET 3.16357 -42.5282 -3.95426
        CHANNELS 3 Zrotation Xrotation Yrotation
        JOINT LeftToeBase
        {
          OFFSET 0.346054 -6.02161 12.8035
          CHANNELS 3 Zrotation Xrotation Yrotation
          End Site
          {
            OFFSET 0.134235 -1.35082 5.13018
          }
        }
      }
    }
  }
  JOINT RightUpLeg
  {
    OFFSET -4.94151 -1.41743 10.6446
    CHANNELS 3 Zrotation Xrotation Yrotation
    JOINT RightLeg
    {
      OFFSET -2.56294 -42.0364 -7.94377
      CHANNELS 3 Zrotation Xrotation Yrotation
      JOINT RightFoot
      {
        OFFSET -3.0952 -42.555 -4.02241
        CHANNELS 3 Zrotation Xrotation Yrotation
        JOINT RightToeBase
        {
          OFFSET -0.0828122 -6.13587 12.8035
          CHANNELS 3 Zrotation Xrotation Yrotation
          End Site
          {
            OFFSET -0.131328 -1.35082 5.13018
          }
        }
      }
    }
  }
}
MOTION
Frames:	15
Frame Time:	0.0333333
-21.0859 86.5737 -51.6012 78.6158 -26.7059 -6.39235 -70.1915 0 88.8779 92.9564 66.8836 -6.06954 5.99855 16.2434 -0.461962 -142.672 28.3252 164.995 -142.949 67.6921 179.002 0.811621 -11.4378 -29.0524 -80.1413 40.4264 -71.5666 23.212 -3.76046 -97.958 0.420957 0.000575291 0.35866 -1.46865 5.27776 42.6461 -81.4485 -38.1874 47.424 11.1573 -8.50756 53.1845 0.58676 0.000331105 0.0646654 -52.8433 8.18097 84.8878 -55.1528 83.7993 33.0288 -5.51354 -2.5328 0.303529 3.48486 -9.27654 8.12021 -24.7347 -4.87408 82.2082 2.50297 55.3867 -5.61708 -7.59804 -2.99884 1.16666 0.643806 -1.09423 -3.40622 
-17.8943 85.4249 -49.2774 79.3343 -27.1007 -6.56554 -70.1915 0 88.8779 99.5996 67.073 -12.2322 4.82238 16.6482 0.12672 -145.012 29.8853 167.082 -146.381 69.3184 -178.604 0.499185 -12.7401 -31.9966 -84.8747 41.8137 -68.7365 27.2199 0.523394 -88.2979 0.420957 0.000575291 0.35866 -1.57891 5.51313 43.3548 -73.3793 -35.9215 62.791 7.40103 -8.85896 40.3479 0.58676 0.000331105 0.0646654 -47.7847 5.85305 85.1794 -116.211 84.5714 103.952 -1.29468 -5.57311 -0.423884 3.72095 -10.4963 12.9729 -24.1457 -4.49087 83.3697 3.8085 62.5343 -6.7878 -9.63853 -6.75515 1.35582 1.54838 -5.1759 -7.91903 
-15.5254 85.4934 -46.9626 79.8576 -28.3193 -7.33772 -70.1915 0 88.8779 104.197 67.7198 -17.7403 3.06722 17.4793 1.38496 -142.671 30.523 167.21 -146.049 70.1407 -177.496 0.468447 -12.8301 -32.4608 -85.8785 44.3625 -67.265 25.3526 5.79296 -77.345 0.420957 0.000575291 0.35866 -1.5675 5.38259 43.8492 -68.7845 -33.7649 72.833 5.29863 -8.73121 31.7309 0.58676 0.000331105 0.0646654 -42.8848 4.80209 87.8628 -128.624 84.3223 123.17 -0.535743 -7.30294 -0.630453 5.22534 -13.0484 14.5464 -25.9558 -3.7805 83.9909 4.18296 64.441 -7.76902 -6.80383 -12.8961 1.27044 1.30738 -0.151571 -8.06054 
-13.3568 85.4558 -45.0716 78.2302 -29.6433 -9.1109 -70.1915 0 88.8779 104.041 69.1728 -17.0193 2.49071 19.1017 1.16295 -143.267 31.3873 167.279 -144.445 70.731 179.891 0.519273 -12.619 -32.2543 -84.609 46.9334 -68.0243 21.4472 9.25343 -67.1674 0.420957 0.000575291 0.35866 -1.58629 5.3395 44.4172 -72.7674 -31.5036 75.423 7.27627 -11.6099 32.5664 0.58676 0.000331105 0.0646654 -36.3426 5.01709 91.497 -120.633 85.2749 118.766 -0.0100221 -9.06995 -0.806021 7.06019 -15.9494 17.0918 -25.0582 -2.19874 85.9071 5.46047 66.9668 -6.88318 -8.60812 -12.943 1.30097 2.38002 -4.93419 -15.0008 
-11.1029 85.6986 -43.4272 77.8897 -30.4698 -10.3757 -70.1915 0 88.8779 108.01 69.9755 -21.5549 1.20275 20.3051 1.79529 -143.646 32.1011 167.668 -144.702 71.5002 -179.04 0.520921 -12.63 -32.0767 -83.126 47.9673 -68.8291 21.9947 14.0916 -58.3755 0.420957 0.000575291 0.35866 -1.65744 5.66121 43.9263 -76.5504 -30.8151 76.1809 9.50539 -12.189 38.5224 0.58676 0.000331105 0.0646654 -32.1905 5.24182 94.7097 -68.0877 85.8419 65.811 -0.905026 -11.2181 -0.951896 7.25893 -16.2879 18.5323 -26.0076 -1.89577 87.0189 5.77313 68.3487 -8.04574 -8.23904 -15.2887 1.30982 2.52551 -4.92179 -16.2197 
-8.98902 86.4329 -42.0531 77.0047 -30.7834 -10.7796 -70.1915 0 88.8779 108.618 70.7714 -21.9395 0.957006 21.0495 2.46917 -143.473 32.5327 167.492 -145.787 72.1025 -177.828 0.516266 -12.665 -31.9529 -82.8789 48.6376 -68.5315 20.2775 18.0339 -49.524 0.420957 0.000575291 0.35866 -1.64337 5.63948 43.8011 -78.2125 -29.9493 77.8512 11.5887 -11.7239 45.3207 0.58676 0.000331105 0.0646654 -28.5342 6.13329 96.2744 -26.5332 81.7985 22.2492 -0.779329 -13.2778 -1.13729 7.50821 -16.6971 20.6563 -27.9758 -1.79433 86.5563 5.30776 67.0726 -7.65524 -9.49493 -17.7837 1.29146 2.56096 -3.60226 -16.3013 
-7.11352 87.534 -40.7936 76.0938 -31.2764 -11.7366 -70.1915 0 88.8779 107.669 71.4761 -21.4618 0.887833 21.5565 2.94546 -143.733 32.6182 167.486 -145.316 72.1327 -178.252 0.638758 -12.1337 -31.4527 -84.7651 49.1137 -65.7995 18.5477 20.5234 -43.2425 0.420957 0.000575291 0.35866 -1.67248 5.81489 43.3966 -80.1953 -29.6838 79.6514 13.906 -11.2954 51.6613 0.58676 0.000331105 0.0646654 -26.4769 6.74106 97.3366 -13.1577 75.0888 7.22113 -0.798581 -11.6896 -0.996639 8.75381 -18.354 21.1466 -29.8793 -1.41193 87.4035 4.85954 65.4001 -6.91749 -7.72654 -18.8213 1.35151 2.63273 -2.74643 -16.7009 
-4.85835 88.1975 -39.7799 75.4745 -31.29 -12.2457 -70.1915 0 88.8779 107.741 71.6781 -21.4442 0.472692 21.8378 2.80243 -144.001 32.6089 167.552 -146.401 72.1838 -177.712 0.684531 -11.946 -31.0485 -85.267 49.3685 -63.7415 16.253 22.3608 -36.98 0.420957 0.000575291 0.35866 -1.65428 5.80948 43.1229 -81.789 -29.8717 80.9773 15.2096 -9.80922 57.9026 0.58676 0.000331105 0.0646654 -25.0123 6.27286 96.5995 -8.59309 69.3396 2.70214 -0.432829 -11.1655 -0.961787 7.0734 -16.012 18.1212 -31.8507 -1.32255 88.0103 4.33351 64.0983 -7.0868 -9.11583 -19.6106 1.29898 2.61678 -4.20288 -16.8392 
-2.54501 89.0399 -38.9117 74.9187 -31.367 -12.5565 -70.1915 0 88.8779 107.762 71.9696 -21.0295 0.21598 22.1612 2.68095 -143.812 32.6363 167.179 -146.836 72.3157 -177.111 0.67622 -12.0036 -30.8414 -85.7447 49.3913 -61.2068 14.5975 23.5282 -32.6462 0.420957 0.000575291 0.35866 -1.60337 5.68868 42.8745 -83.4621 -30.0365 81.8234 17.167 -8.95934 63.1838 0.58676 0.000331105 0.0646654 -24.7451 4.90683 94.553 -6.3449 63.171 -1.71812 -1.13949 -8.50036 -0.698728 6.16357 -14.4732 14.4718 -34.1656 -0.721669 89.2192 3.8645 62.2735 -6.88374 -7.88704 -20.7638 1.36462 2.91143 -3.81045 -19.0504 
-0.308207 90.2234 -38.2235 74.3841 -32.2901 -13.204 -70.1915 0 88.8779 108.924 72.4511 -21.8437 -0.414197 22.8152 2.60517 -143.784 32.6976 167.263 -147.116 72.3935 -176.904 0.812971 -11.3475 -30.49 -85.8805 49.36 -58.9835 13.6031 25.8023 -29.7216 0.420957 0.000575291 0.35866 -1.56651 5.69603 42.2155 -84.5294 -30.6063 81.9867 16.9571 -7.15356 67.7036 0.58676 0.000331105 0.0646654 -26.3149 4.22116 93.3862 -5.29972 56.5007 -8.03657 -3.30959 -4.78036 -0.17574 6.47069 -14.9147 14.0817 -37.1838 -0.142289 90.6668 3.36821 59.1903 -5.63302 -8.8048 -21.3269 1.31497 3.48808 -2.6469 -22.8298 
2.01192 91.2531 -37.6468 73.8843 -33.2901 -14.1672 -70.1915 0 88.8779 107.617 73.0119 -20.5646 -0.10275 23.2903 2.38191 -144.606 32.5362 168.109 -148.25 72.1819 -176.274 0.917921 -10.8339 -30.0355 -88.4559 49.3969 -54.597 12.6727 26.6935 -28.4283 0.420957 0.000575291 0.35866 -1.59693 5.87063 41.8802 -84.7816 -30.6694 82.5123 16.3211 -5.78631 70.9084 0.58676 0.000331105 0.0646654 -28.6117 3.75984 93.6482 -4.72916 51.0231 -12.9583 -5.28332 -3.16803 0.19947 5.99176 -14.0123 12.008 -39.941 -0.0382774 92.5793 2.46871 56.2552 -7.04718 -8.07916 -21.1742 1.35738 2.77217 -3.26347 -17.8327 
4.27119 92.0616 -37.1723 72.8137 -34.5521 -14.8281 -70.1915 0 88.8779 106.198 73.8272 -18.6237 -0.203052 23.8976 2.67978 -145.099 32.4342 168.234 -147.916 71.9914 -177.002 1.00634 -10.3828 -29.6767 -89.3302 50.2256 -51.176 11.7615 24.6047 -28.2819 0.420957 0.000575291 0.35866 -1.55168 5.73478 41.7763 -84.639 -30.4625 82.3218 16.1433 -4.8636 73.5672 0.58676 0.000331105 0.0646654 -30.6801 3.906 93.7635 -4.41354 47.4699 -15.7786 -7.46021 -0.591708 0.792391 5.9806 -14.091 13.1744 -41.9775 0.10186 93.4436 2.12137 53.6251 -6.74494 -8.58083 -20.3473 1.32512 2.54856 -4.76676 -16.3866 
6.6181 92.7083 -36.9522 71.9802 -35.6519 -15.1725 -70.1915 0 88.8779 105.031 74.2655 -16.6864 -0.333145 24.1983 2.90494 -145.604 32.2001 168.159 -146.438 71.5688 -178.751 1.12488 -9.7479 -29.003 -88.913 52.0162 -49.3639 10.0087 21.1625 -27.8876 0.420957 0.000575291 0.35866 -1.519 5.67144 41.5292 -84.487 -30.2712 81.8582 16.5778 -4.51002 75.0849 0.58676 0.000331105 0.0646654 -33.3569 3.82414 94.3617 -3.87514 44.5134 -14.5371 -7.40585 1.81251 1.12742 3.80554 -10.0583 9.37394 -44.1952 -0.402731 93.5699 2.15444 50.9347 -4.62747 -8.8403 -20.172 1.3117 2.75617 -5.1459 -18.2204 
8.94232 93.3725 -36.756 70.6237 -36.7372 -15.8207 -70.1915 0 88.8779 100.601 74.7353 -10.8657 0.465824 24.5971 2.14483 -146.315 31.855 168.516 -146.338 71.1174 -179.173 1.19038 -9.36929 -28.4179 -90.127 53.2194 -46.7812 8.80312 18.4536 -27.776 0.420957 0.000575291 0.35866 -1.51763 5.63562 41.6801 -84.2832 -29.763 81.1741 16.5301 -4.21995 75.9511 0.58676 0.000331105 0.0646654 -35.9674 3.46619 94.6467 -3.60337 41.4962 -15.3137 -4.44795 1.75683 0.689219 4.51538 -10.8228 6.35235 -45.9774 -0.641119 94.3055 1.67888 47.9592 -5.32827 -7.13217 -19.7799 1.38951 2.06446 -5.37564 -12.2966 
11.1564 93.8195 -36.648 69.5183 -37.6939 -16.3138 -70.1915 0 88.8779 96.7162 74.9701 -6.29003 1.09372 24.6784 2.08488 -148.082 31.5125 168.78 -145.24 70.4527 178.5 1.24541 -9.03651 -27.9864 -90.7457 54.4641 -45.5624 8.54525 17.0407 -28.199 0.420957 0.000575291 0.35866 -1.44706 5.33255 41.9686 -83.9304 -29.2031 80.7531 16.5956 -4.25634 75.8923 0.58676 0.000331105 0.0646654 -38.0435 3.48731 97.0376 -3.48303 39.3074 -16.4946 -2.12062 4.15701 0.582408 7.44892 -16.28 10.7477 -47.6348 -1.07215 94.6192 1.60915 45.4893 -4.22871 -7.88681 -18.66 1.34402 2.07495 -7.04595 -12.1503 
